PathFileType  4	(X/Y/Z) C:\Users\HPL 1\Documents/Temp/Sub278498/Files_W_HJCs/
DataRate	CameraRate	NumFrames	NumMarkers	Units	OrigDataRate	OrigDataStartFrame	OrigNumFrames
50.0	50.0	6	42	mm	50.0	1	684
Frame#	Time  	r_knee			r_shank(antsup)			r_ankle			r_calc			r_5meta			r_toe			L_knee			L_shank(ant_sup)			L_ankle			L_calc			L_5meta			L_toe			r_mknee			r_mankle			L_mknee			L_mankle			r_sh2			r_sh3			r_sh4			L_sh2			L_sh3			r_thigh1			r_thigh2			r_thigh3			r_thigh4			r_thigh5			L_thigh1			L_thigh2			L_thigh3			L_thigh4			r.ASIS			r.PSIS			L.ASIS			L.PSIS			C7			R_Shoulder			L_Shoulder			Sternum			R_HJC			L_HJC			R_HJC_reg			L_HJC_reg			
		X1	Y1	Z1	X2	Y2	Z2	X3	Y3	Z3	X4	Y4	Z4	X5	Y5	Z5	X6	Y6	Z6	X7	Y7	Z7	X8	Y8	Z8	X9	Y9	Z9	X10	Y10	Z10	X11	Y11	Z11	X12	Y12	Z12	X13	Y13	Z13	X14	Y14	Z14	X15	Y15	Z15	X16	Y16	Z16	X17	Y17	Z17	X18	Y18	Z18	X19	Y19	Z19	X20	Y20	Z20	X21	Y21	Z21	X22	Y22	Z22	X23	Y23	Z23	X24	Y24	Z24	X25	Y25	Z25	X26	Y26	Z26	X27	Y27	Z27	X28	Y28	Z28	X29	Y29	Z29	X30	Y30	Z30	X31	Y31	Z31	X32	Y32	Z32	X33	Y33	Z33	X34	Y34	Z34	X35	Y35	Z35	X36	Y36	Z36	X37	Y37	Z37	X38	Y38	Z38	X39	Y39	Z39	X40	Y40	Z40	X41	Y41	Z41	X42	Y42	Z42	

1	0.00000	757.11237	574.66321	-284.28940	766.45770	490.64920	-276.69617	707.75995	114.81554	-285.82605	622.05902	71.92933	-333.78830	817.32513	39.71280	-249.55548	861.01245	73.26913	-309.96201	767.36188	571.22382	-612.58966	792.34180	457.32135	-612.81671	707.18433	115.34296	-617.37213	628.46771	74.27386	-572.46259	824.91528	42.41590	-657.40649	868.57758	71.22482	-598.11407	759.62213	553.02765	-409.16177	727.13971	120.99923	-379.99591	781.37158	558.17157	-490.59381	733.95551	120.37501	-526.34259	760.44122	370.85110	-274.52158	690.52399	492.42328	-269.09967	677.41602	376.87881	-265.92776	706.00854	477.32944	-635.15442	693.66382	355.91183	-638.20612	842.87622	894.12433	-271.65720	837.57214	779.33105	-271.01492	792.25537	748.77881	-257.68521	729.68317	891.96564	-260.74997	731.00323	774.31329	-270.28525	856.85553	840.02271	-628.89935	858.38403	701.86102	-621.73529	742.01215	839.47888	-650.62311	746.33313	703.78949	-633.03510	874.13519	1088.38550	-323.65976	682.36145	1125.26147	-411.76254	875.61676	1096.85376	-579.52301	687.34338	1125.62598	-494.18454	735.21448	1608.79443	-447.08871	781.66846	1579.73010	-281.79648	795.94867	1568.36182	-625.86346	872.63434	1531.16772	-444.83875	802.85861	1001.08283	-336.20435	804.84312	1008.56576	-572.44211	798.23657	1016.24611	-364.61063	808.43082	1016.99199	-533.26621
2	0.02000	757.15393	574.70721	-284.30832	766.47235	490.59128	-276.78430	707.76965	114.80892	-285.86163	622.04138	71.94170	-333.80975	817.34363	39.74135	-249.56451	860.99786	73.22684	-309.96680	767.48041	571.23944	-612.58075	792.41553	457.36069	-612.80682	707.15106	115.35604	-617.40082	628.45526	74.29279	-572.47400	824.91754	42.44288	-657.37646	868.56378	71.21490	-598.09259	759.64740	553.04907	-409.14487	727.12286	121.01952	-380.00723	781.37659	558.17175	-490.62711	734.03754	120.49158	-526.26563	760.42004	370.83569	-274.56799	690.56641	492.47699	-269.09705	677.45789	376.89041	-265.90118	706.02911	477.33231	-635.18475	693.68103	355.88629	-638.22937	842.86810	894.15778	-271.65637	837.66083	779.40997	-270.95889	792.22614	748.76672	-257.70007	729.65942	891.98846	-260.76166	731.02240	774.38745	-270.16116	856.95978	840.02197	-628.88611	858.45026	701.88348	-621.75024	741.98254	839.54645	-650.57263	746.41498	703.76703	-632.98663	874.07098	1088.41479	-323.62451	682.27417	1125.25830	-411.78644	875.67621	1096.86658	-579.54230	687.25470	1125.54272	-494.22354	735.17236	1608.75708	-447.03622	781.83295	1579.72241	-281.78448	795.79321	1568.36609	-625.85028	872.63239	1531.16553	-444.86435	802.81931	1001.09675	-336.19401	804.87529	1008.54800	-572.43216	798.19691	1016.35595	-364.51060	808.38866	1016.93797	-533.20315
3	0.04000	757.19147	574.68365	-284.32788	766.49255	490.60828	-276.79666	707.74768	114.77890	-285.85510	622.05389	71.95222	-333.79892	817.36603	39.73307	-249.56821	861.01617	73.23830	-309.97076	767.40222	571.21844	-612.56073	792.36029	457.28387	-612.77985	707.17188	115.37254	-617.38135	628.44702	74.28592	-572.47601	824.90710	42.45947	-657.37970	868.57721	71.22942	-598.09912	759.66809	553.05164	-409.19577	727.14288	121.01336	-379.99225	781.15106	558.07483	-490.65601	734.01624	120.48953	-526.31921	760.43402	370.84424	-274.61700	690.60712	492.50043	-269.11429	677.51312	376.91724	-265.92993	706.04321	477.30478	-635.18909	693.69141	355.88031	-638.22473	842.86169	894.21356	-271.64758	837.64233	779.31909	-271.00128	792.25238	748.75366	-257.74057	729.63678	891.99951	-260.71875	731.04907	774.31097	-270.28909	857.05536	840.05438	-628.91547	858.54602	701.84991	-621.74902	742.12128	839.57855	-650.68738	746.41895	703.92328	-633.17767	874.02167	1088.43970	-323.64078	682.28625	1125.26196	-411.77789	875.70502	1096.85522	-579.52496	687.21484	1125.63354	-494.19772	735.18420	1608.78137	-446.98102	781.96661	1579.71997	-281.79953	795.74603	1568.32397	-625.85687	872.61194	1531.18713	-444.91235	802.77781	1001.11879	-336.18394	804.85056	1008.57023	-572.42194	798.27582	1016.24789	-364.55298	808.36238	1017.00834	-533.22847
4	0.06000	757.21521	574.72198	-284.35733	766.51001	490.64145	-276.78964	707.75867	114.81041	-285.83963	622.04541	71.99893	-333.79837	817.38129	39.73870	-249.59158	860.99133	73.24843	-309.99921	767.45355	571.23553	-612.51971	792.36566	457.26099	-612.74261	707.14117	115.38392	-617.40570	628.44116	74.32130	-572.47034	824.92090	42.47548	-657.35590	868.55060	71.23384	-598.13489	759.70343	553.09076	-409.17029	727.14728	121.03010	-380.00577	781.25690	558.11426	-490.60712	733.99945	120.50401	-526.31085	760.44147	370.85095	-274.62131	690.61957	492.51135	-269.15213	677.52209	376.95450	-265.92783	706.03650	477.32196	-635.17786	693.67767	355.92801	-638.20886	842.86847	894.15466	-271.58313	837.59491	779.35406	-270.98294	792.14331	748.34009	-258.22488	729.57697	892.03546	-260.65295	731.31250	774.87512	-270.08075	857.11432	840.01044	-628.88593	858.59277	701.84540	-621.71075	742.16437	839.57581	-650.67584	746.47363	703.79236	-633.09656	874.02875	1088.48621	-323.59091	682.07074	1125.27600	-411.76981	875.68195	1096.84412	-579.47522	687.18884	1125.58044	-494.15518	735.12909	1608.78809	-446.97519	782.00629	1579.76648	-281.81665	795.60327	1568.33057	-625.84198	872.59723	1531.15820	-444.90079	802.73281	1001.15696	-336.11390	804.82716	1008.54293	-572.35376	798.05403	1016.32999	-364.62015	808.53128	1016.95321	-533.27110
5	0.08000	757.23572	574.70898	-284.31512	766.53259	490.66852	-276.76349	707.75452	114.79884	-285.86780	622.02338	71.97378	-333.82440	817.38055	39.73425	-249.57025	861.01331	73.24181	-309.97998	767.46716	571.23328	-612.49390	792.36957	457.28561	-612.77765	707.18707	115.37115	-617.35779	628.45886	74.28908	-572.46429	824.93945	42.46816	-657.37152	868.57855	71.24035	-598.08807	759.68774	553.06439	-409.16284	727.14996	121.07553	-379.99390	781.41870	558.15253	-490.58243	734.02386	120.49683	-526.30688	760.44891	370.87640	-274.60254	690.63654	492.48453	-269.13974	677.50043	376.94098	-265.94388	706.02228	477.34311	-635.18329	693.68549	355.91071	-638.21106	842.82996	894.23975	-271.58963	837.61798	779.34851	-270.98416	792.26929	748.76691	-257.67465	729.63037	891.99884	-260.66922	731.06702	774.27820	-270.22687	857.07300	840.00592	-628.85541	858.63538	701.86969	-621.70227	742.14301	839.50128	-650.65131	746.48712	703.92590	-633.19489	873.93201	1088.43079	-323.57779	682.08026	1125.23743	-411.63663	875.62213	1096.84790	-579.45142	687.08966	1125.59814	-494.13528	735.12787	1608.81018	-446.87793	782.05457	1579.83521	-281.79263	795.54669	1568.29858	-625.85266	872.57886	1531.16772	-444.93073	802.67438	1001.10196	-336.10128	804.73901	1008.55757	-572.33922	798.10632	1016.24536	-364.54841	808.34748	1016.98279	-533.20778
6	0.10000	757.22607	574.71613	-284.26761	766.52557	490.62964	-276.78391	707.76056	114.81389	-285.86887	622.03412	71.94702	-333.83270	817.36304	39.73599	-249.58658	861.00494	73.26063	-310.00955	767.42413	571.21948	-612.48785	792.35852	457.31732	-612.75775	707.16064	115.38129	-617.39197	628.45642	74.30112	-572.48273	824.92181	42.46902	-657.39709	868.55664	71.19116	-598.11157	759.70428	553.06781	-409.13922	727.11835	121.03475	-380.02185	781.46210	558.23248	-490.56744	734.05597	120.48904	-526.30731	760.45514	370.86649	-274.57568	690.65924	492.53513	-269.07791	677.50702	376.94516	-265.91330	706.05713	477.34085	-635.12531	693.68164	355.95261	-638.20532	842.84625	894.24487	-271.54001	837.54541	779.37421	-270.94379	792.29865	748.73657	-257.65573	729.61615	891.98560	-260.61032	731.05560	774.32892	-270.19226	857.05670	840.04736	-628.77960	858.55115	701.89532	-621.65137	742.17230	839.50568	-650.64221	746.45978	703.89594	-633.16418	873.91724	1088.46558	-323.50815	682.04651	1125.19092	-411.59085	875.51514	1096.87830	-579.39337	687.08649	1125.52222	-494.05524	735.02167	1608.74609	-447.01563	782.04718	1579.87976	-281.78256	795.52393	1568.21570	-625.84851	872.54712	1531.15649	-444.92691	802.69930	1001.10690	-336.03281	804.72684	1008.54508	-572.27162	798.04587	1016.28246	-364.48212	808.35404	1016.96006	-533.14483
